<?xml version="1.0" encoding="UTF-8" standalone="no"?>
<svg width="180" height="180" viewBox="0 0 180 180" xmlns="http://www.w3.org/2000/svg">
  <defs>
    <linearGradient id="grad1" x1="0%" y1="0%" x2="100%" y2="100%">
      <stop offset="0%" style="stop-color:#4A90E2;stop-opacity:1" />
      <stop offset="100%" style="stop-color:#5C42AB;stop-opacity:1" />
    </linearGradient>
  </defs>
  <rect width="180" height="180" rx="40" fill="url(#grad1)"/>
  <g transform="translate(35, 45)">
    <!-- Book shape -->
    <path d="M10,0 L100,0 C105.5,0 110,4.5 110,10 L110,80 C110,85.5 105.5,90 100,90 L10,90 C4.5,90 0,85.5 0,80 L0,10 C0,4.5 4.5,0 10,0 Z" fill="#FFFFFF"/>
    
    <!-- Book pages -->
    <path d="M55,10 L100,10 C102.8,10 105,12.2 105,15 L105,75 C105,77.8 102.8,80 100,80 L55,80 L55,10 Z" fill="#F5F5F5"/>
    
    <!-- Sound waves -->
    <path d="M25,35 L25,55 M40,25 C50,35 50,55 40,65 M55,15 C70,30 70,60 55,75" stroke="#4A90E2" stroke-width="6" stroke-linecap="round" fill="none"/>
    
    <!-- Letters -->
    <text x="70" y="40" font-family="Arial, sans-serif" font-weight="bold" font-size="22" fill="#5C42AB">A</text>
    <text x="70" y="65" font-family="Arial, sans-serif" font-weight="bold" font-size="22" fill="#5C42AB">B</text>
  </g>
</svg>
