<?xml version="1.0" encoding="UTF-8" standalone="no"?>
<svg width="16" height="16" viewBox="0 0 16 16" xmlns="http://www.w3.org/2000/svg">
  <rect width="16" height="16" rx="2" fill="#000000"/>
  <g transform="translate(3, 3)">
    <!-- Book shape -->
    <path d="M1,0 L9,0 C9.6,0 10,0.4 10,1 L10,9 C10,9.6 9.6,10 9,10 L1,10 C0.4,10 0,9.6 0,9 L0,1 C0,0.4 0.4,0 1,0 Z" fill="#FFFFFF"/>

    <!-- Sound waves -->
    <path d="M2.5,4 L2.5,6 M4,3 C5,4 5,6 4,7 M5.5,2 C7,3.5 7,6.5 5.5,8" stroke="#000000" stroke-width="0.5" stroke-linecap="round" fill="none"/>

    <!-- Letters -->
    <text x="6.5" y="4.5" font-family="Arial, sans-serif" font-weight="bold" font-size="2" fill="#000000">A</text>
    <text x="6.5" y="7" font-family="Arial, sans-serif" font-weight="bold" font-size="2" fill="#000000">B</text>
  </g>
</svg>
