<?xml version="1.0" encoding="UTF-8" standalone="no"?>
<svg width="512" height="512" viewBox="0 0 512 512" xmlns="http://www.w3.org/2000/svg">
  <defs>
    <linearGradient id="grad1" x1="0%" y1="0%" x2="100%" y2="100%">
      <stop offset="0%" style="stop-color:#4A90E2;stop-opacity:1" />
      <stop offset="100%" style="stop-color:#5C42AB;stop-opacity:1" />
    </linearGradient>
  </defs>
  <rect width="512" height="512" rx="80" fill="url(#grad1)"/>
  <g transform="translate(96, 128)">
    <!-- Book shape -->
    <path d="M30,0 L290,0 C305,0 320,15 320,30 L320,230 C320,245 305,260 290,260 L30,260 C15,260 0,245 0,230 L0,30 C0,15 15,0 30,0 Z" fill="#FFFFFF"/>
    
    <!-- Book pages -->
    <path d="M160,20 L290,20 C297,20 305,28 305,35 L305,225 C305,232 297,240 290,240 L160,240 L160,20 Z" fill="#F5F5F5"/>
    
    <!-- Sound waves -->
    <path d="M80,100 L80,160 M120,70 C150,100 150,160 120,190 M160,40 C200,80 200,180 160,220" stroke="#4A90E2" stroke-width="16" stroke-linecap="round" fill="none"/>
    
    <!-- Letters -->
    <text x="200" y="110" font-family="Arial, sans-serif" font-weight="bold" font-size="64" fill="#5C42AB">A</text>
    <text x="200" y="180" font-family="Arial, sans-serif" font-weight="bold" font-size="64" fill="#5C42AB">B</text>
  </g>
</svg>
