<?xml version="1.0" encoding="UTF-8" standalone="no"?>
<svg width="192" height="192" viewBox="0 0 192 192" xmlns="http://www.w3.org/2000/svg">
  <defs>
    <linearGradient id="grad1" x1="0%" y1="0%" x2="100%" y2="100%">
      <stop offset="0%" style="stop-color:#4A90E2;stop-opacity:1" />
      <stop offset="100%" style="stop-color:#5C42AB;stop-opacity:1" />
    </linearGradient>
  </defs>
  <rect width="192" height="192" rx="32" fill="url(#grad1)"/>
  <g transform="translate(38, 48)">
    <!-- Book shape -->
    <path d="M10,0 L110,0 C115.5,0 120,4.5 120,10 L120,90 C120,95.5 115.5,100 110,100 L10,100 C4.5,100 0,95.5 0,90 L0,10 C0,4.5 4.5,0 10,0 Z" fill="#FFFFFF"/>
    
    <!-- Book pages -->
    <path d="M60,10 L110,10 C112.8,10 115,12.2 115,15 L115,85 C115,87.8 112.8,90 110,90 L60,90 L60,10 Z" fill="#F5F5F5"/>
    
    <!-- Sound waves -->
    <path d="M30,40 L30,60 M45,30 C55,40 55,60 45,70 M60,20 C75,35 75,65 60,80" stroke="#4A90E2" stroke-width="6" stroke-linecap="round" fill="none"/>
    
    <!-- Letters -->
    <text x="75" y="45" font-family="Arial, sans-serif" font-weight="bold" font-size="24" fill="#5C42AB">A</text>
    <text x="75" y="70" font-family="Arial, sans-serif" font-weight="bold" font-size="24" fill="#5C42AB">B</text>
  </g>
</svg>
